<svg width="100" height="82" viewBox="0 0 100 82" fill="none" xmlns="http://www.w3.org/2000/svg">
<rect x="90.1887" y="82" width="80.3774" height="12.4678" transform="rotate(-180 90.1887 82)" fill="black"/>
<rect x="90.1887" y="12.4678" width="80.3774" height="12.4678" transform="rotate(-180 90.1887 12.4678)" fill="black"/>
<rect x="100" y="12.4678" width="57.0643" height="9.81132" transform="rotate(90 100 12.4678)" fill="black"/>
<rect y="69.5322" width="57.0643" height="9.81132" transform="rotate(-90 0 69.5322)" fill="black"/>
<rect x="90.1887" y="69.5322" width="80.3774" height="57.0643" transform="rotate(-180 90.1887 69.5322)" fill="white"/>
<rect width="46" height="46" transform="translate(25 18)" fill="white"/>
<path d="M50.0909 59.8182L45.9091 59.8182L45.9091 57.7273L43.8182 57.7273L43.8182 55.6364L41.7273 55.6364L41.7273 53.5455L39.6364 53.5455L39.6364 51.4546L37.5455 51.4546L37.5455 49.3636L35.4545 49.3636L35.4545 47.2727L33.3636 47.2727L33.3636 45.1818L31.2727 45.1818L31.2727 43.0909L29.1818 43.0909L29.1818 38.9091L31.2727 38.9091L31.2727 36.8182L33.3636 36.8182L33.3636 34.7273L35.4545 34.7273L35.4545 32.6364L37.5455 32.6364L37.5455 30.5455L39.6364 30.5455L39.6364 28.4546L41.7273 28.4546L41.7273 26.3636L43.8182 26.3636L43.8182 24.2727L45.9091 24.2727L45.9091 22.1818L50.0909 22.1818L50.0909 32.6364L66.8182 32.6364L66.8182 49.3636L50.0909 49.3636L50.0909 59.8182ZM45.9091 51.4546L45.9091 45.1818L62.6364 45.1818L62.6364 36.8182L45.9091 36.8182L45.9091 30.5455L43.8182 30.5455L43.8182 32.6364L41.7273 32.6364L41.7273 34.7273L39.6364 34.7273L39.6364 36.8182L37.5455 36.8182L37.5455 38.9091L35.4545 38.9091L35.4545 43.0909L37.5455 43.0909L37.5455 45.1818L39.6364 45.1818L39.6364 47.2727L41.7273 47.2727L41.7273 49.3636L43.8182 49.3636L43.8182 51.4546L45.9091 51.4546Z" fill="black"/>
</svg>
