<svg width="100" height="82" viewBox="0 0 100 82" fill="none" xmlns="http://www.w3.org/2000/svg">
<rect x="9.81133" width="80.3774" height="12.4678" fill="black"/>
<rect x="9.81133" y="69.5322" width="80.3774" height="12.4678" fill="black"/>
<rect y="69.5322" width="57.0643" height="9.81132" transform="rotate(-90 0 69.5322)" fill="black"/>
<rect x="100" y="12.4678" width="57.0643" height="9.81132" transform="rotate(90 100 12.4678)" fill="black"/>
<rect x="9.81133" y="12.4678" width="80.3774" height="57.0643" fill="white"/>
<rect width="46" height="46" transform="translate(75 64) rotate(-180)" fill="white"/>
<path d="M49.9091 22.1818L54.0909 22.1818L54.0909 24.2727L56.1818 24.2727L56.1818 26.3636L58.2727 26.3636L58.2727 28.4545L60.3636 28.4545L60.3636 30.5455L62.4545 30.5455L62.4545 32.6364L64.5455 32.6364L64.5455 34.7273L66.6364 34.7273L66.6364 36.8182L68.7273 36.8182L68.7273 38.9091L70.8182 38.9091L70.8182 43.0909L68.7273 43.0909L68.7273 45.1818L66.6364 45.1818L66.6364 47.2727L64.5454 47.2727L64.5454 49.3636L62.4545 49.3636L62.4545 51.4545L60.3636 51.4545L60.3636 53.5455L58.2727 53.5455L58.2727 55.6364L56.1818 55.6364L56.1818 57.7273L54.0909 57.7273L54.0909 59.8182L49.9091 59.8182L49.9091 49.3636L33.1818 49.3636L33.1818 32.6364L49.9091 32.6364L49.9091 22.1818ZM54.0909 30.5455L54.0909 36.8182L37.3636 36.8182L37.3636 45.1818L54.0909 45.1818L54.0909 51.4545L56.1818 51.4545L56.1818 49.3636L58.2727 49.3636L58.2727 47.2727L60.3636 47.2727L60.3636 45.1818L62.4545 45.1818L62.4545 43.0909L64.5455 43.0909L64.5455 38.9091L62.4545 38.9091L62.4545 36.8182L60.3636 36.8182L60.3636 34.7273L58.2727 34.7273L58.2727 32.6364L56.1818 32.6364L56.1818 30.5455L54.0909 30.5455Z" fill="black"/>
</svg>
