<svg width="220" height="64" viewBox="0 0 220 64" fill="none" xmlns="http://www.w3.org/2000/svg">
<rect x="209.668" y="64" width="199.336" height="9.73099" transform="rotate(-180 209.668 64)" fill="black"/>
<rect x="209.668" y="9.731" width="199.336" height="9.73099" transform="rotate(-180 209.668 9.731)" fill="black"/>
<rect x="219.73" y="10" width="44.538" height="9.73" transform="rotate(90 219.73 10)" fill="black"/>
<rect y="54.538" width="44.538" height="9.73" transform="rotate(-90 0 54.538)" fill="black"/>
<rect x="209.668" y="54.269" width="199.336" height="44.538" transform="rotate(-180 209.668 54.269)" fill="white"/>
<path d="M33 42.5V39H29.5V35.5H26V25H29.5V21.5H33V18H47V21.5H50.5V25H43.5V21.5H36.5V25H33V35.5H36.5V39H43.5V35.5H50.5V39H47V42.5H33ZM57.5 42.5V39H54V35.5H57.5V32H71.5V28.5H57.5V25H75V28.5H78.5V42.5H57.5ZM61 39H71.5V35.5H61V39ZM82 42.5V25H103V28.5H106.5V42.5H99.5V28.5H89V42.5H82ZM113.5 42.5V39H110V28.5H113.5V25H134.5V28.5H117V39H134.5V42.5H113.5ZM141.5 42.5V39H138V28.5H141.5V25H159V28.5H162.5V35.5H145V39H159V42.5H141.5ZM145 32H155.5V28.5H145V32ZM169.5 42.5V39H176.5V21.5H173V18H183.5V39H190.5V42.5H169.5Z" fill="black"/>
</svg>
